<svg id="Capa_1" enable-background="new 0 0 512 512" height="512" viewBox="0 0 512 512" width="512" xmlns="http://www.w3.org/2000/svg"><g><path d="m168.224 103.363s-23.739 11.666-50.19 36.58l-20.757 42.797c-2.305 4.753-9.077 4.753-11.382 0l-1.652-3.406c-20.697 30.353-37.069 70.308-37.069 120.808 0 137.342 146.801 192.972 146.801 192.972l10.267 12.685c15.404 3.752 31.448 5.868 47.94 6.152l17.512-6.151 91.686-29.683 14.238.138c14.067-9.253 27.003-20.082 38.545-32.25l5.611-20.941s52.351-76.234 41.019-142.68c-5.793-33.966-17.378-65.374-37.222-94.913-2.979 1.699-7.138.794-8.847-2.729l-11.362-23.426c-16.415-18.67-36.697-36.628-61.555-54.063l-7.72-14.756c-24.243-9.313-50.566-14.423-78.087-14.423-31.235 0-60.918 6.601-87.776 18.437z" fill="#90d8f9"/><path d="m84.202 294.013c0-112.35 84.95-204.846 194.12-216.794-7.34-.748-14.784-1.145-22.322-1.145-31.235 0-60.918 6.601-87.776 18.437v8.852s-23.739 11.666-50.19 36.58l-20.757 42.797c-2.305 4.753-9.077 4.753-11.382 0l-1.652-3.406c-20.697 30.353-37.069 70.308-37.069 120.808 0 137.342 146.801 192.972 146.801 192.972l10.267 12.685c15.404 3.752 31.448 5.868 47.94 6.152l10.021-3.52c-101.299-18.833-178.001-107.662-178.001-214.418z" fill="#90d8f9"/><path d="m252.181 511.952c1.272.022 2.542.048 3.818.048 44.178 0 85.277-13.156 119.618-35.745-30.721-47.837-62.725-13.467-94.295-3.82-19.519 5.964-26.588 25.357-29.141 39.517z" fill="#b3e59f"/><path d="m313.404 458.316c-10.699 4.78-21.415 10.859-32.082 14.118-19.52 5.964-26.588 25.357-29.141 39.517 1.272.022 2.542.048 3.818.048 12.037 0 23.843-.984 35.348-2.862 2.464-17.704 8.291-39.871 22.057-50.821z" fill="#95d6a4"/><g><path d="m213.805 202.955-10.854-11.297c-2.956-3.077-2.859-7.968.218-10.925 3.076-2.956 7.968-2.858 10.925.218l10.854 11.297c2.956 3.077 2.859 7.968-.218 10.925-3.076 2.955-7.967 2.86-10.925-.218z" fill="#75cef9"/></g><g><path d="m317.768 252.979-12.581-7.172c-3.707-2.114-4.999-6.832-2.886-10.539 2.114-3.706 6.833-4.997 10.539-2.885l12.581 7.172c3.707 2.114 4.999 6.832 2.886 10.539-2.114 3.707-6.833 4.997-10.539 2.885z" fill="#75cef9"/></g><path d="m433.487 167.52-6.863-12.992-29.532-25.068-30.905-28.164h-8.364c-7.655-4.052-15.575-7.669-23.737-10.802-11.4 5.743-22.682 15.297-21.788 30.494 1.773 30.125 38.099 21.265 38.099 39.871 0 18.607-41.282 16.147-38.149 40.757 2.686 21.097 27.733 17.698 46.534 19.646l9.465.234 38.46 32.497 1.636 5.719c12.107 3.837 23.144 7.58 21.796 19.875-3.544 32.34-86.319 9.088-89.489 31.011-5.316 36.77-31.897 38.099 0 66.452 25.042 22.26 61.547 34.148 73.511 66.953 37.06-39.073 59.801-91.863 59.801-149.967.001-47.177-14.997-90.845-40.475-126.516z" fill="#b3e59f"/><g fill="#95d6a4"><path d="m368.247 221.497 38.46 32.497 1.636 5.719c12.107 3.837 23.144 7.58 21.796 19.875-.03.272-.079.531-.12.795 14.238-1.959 25.607-6.417 26.873-17.965 2.355-20.925-53.572-51.06-53.572-51.06l-8.32-7.03-9.465-.234c-18.801-1.948-43.848 1.451-46.534-19.646-.568-4.459.328-8.027 2.167-10.995-11.971 7.062-31.088 11.126-28.919 28.165 2.686 21.097 27.733 17.698 46.534 19.646z"/><path d="m350.398 160.86c0 1.905-.439 3.586-1.212 5.101 11.349-7.139 27.964-10.466 27.964-22.271 0-18.607-36.327-9.747-38.099-39.871-.231-3.933.358-7.485 1.548-10.693-2.154-.909-4.323-1.791-6.513-2.631-11.4 5.743-22.682 15.297-21.788 30.494 1.773 30.124 38.1 21.264 38.1 39.871z"/><path d="m367.404 359.881c-29.918-26.593-8.39-29.414-1.217-60.002-13.688.934-24.433 3.092-25.536 10.72-5.316 36.77-31.897 38.099 0 66.452 25.042 22.26 61.547 34.148 73.511 66.953 8.024-8.46 15.374-17.565 21.97-27.225-15.056-25.466-46.429-37.076-68.728-56.898z"/></g><path d="m199.773 148.72c23.037-6.486 33.669-29.649 0-36.135-12.201-2.35-22.878-9.695-31.548-18.098-4.772 2.102-9.454 4.371-14.04 6.798l-11.461 3.194-60.781 58.205-3.432 4.831c-25.478 35.671-40.473 79.343-40.473 126.522 0 102.541 70.816 188.529 166.205 211.763 2.879-13.181 4.411-34.279 1.733-68.056-6.904-87.095-43.526-76.131-86.055-103.001-41.928-26.49 5.27-31.43 7.993-67.701l-.127-7.521 21.891-16.84 5.122 2.443c13.376-3.061 28.324-5.344 36.113-13.941 15.949-17.605-7.974-27.796-17.721-41.695-9.746-13.899 3.544-34.283 26.581-40.768z" fill="#b3e59f"/><path d="m84.202 294.013c0-78.378 41.35-147.088 103.416-185.539-7.227-3.488-13.74-8.507-19.394-13.988-4.772 2.102-9.454 4.371-14.04 6.798l-11.461 3.194-60.781 58.205-3.432 4.831c-25.478 35.671-40.473 79.343-40.473 126.522 0 102.541 70.816 188.529 166.205 211.763.948-4.343 1.749-9.552 2.303-15.784-72.448-35.465-122.343-109.902-122.343-196.002z" fill="#95d6a4"/><path d="m88.17.081c-35.823 1.703-64.837 30.76-66.492 66.585-1.286 27.818 13.684 52.256 36.213 64.657 2.779 1.53 4.975 3.936 6.36 6.791l21.644 44.627c2.305 4.753 9.077 4.753 11.382 0l21.645-44.628c1.388-2.861 3.594-5.266 6.379-6.8 21.618-11.908 36.269-34.901 36.269-61.326.001-39.786-33.196-71.817-73.4-69.906zm3.416 104.897c-19.326 0-34.993-15.667-34.993-34.993s15.667-34.992 34.993-34.992 34.993 15.667 34.993 34.993-15.667 34.992-34.993 34.992z" fill="#dd636e"/><g><path d="m100.65 138.114c-1.384-2.855-3.58-5.261-6.36-6.791-17.825-9.811-30.908-27.161-34.962-47.755-1.761-4.177-2.735-8.766-2.735-13.583 0-4.822.976-9.416 2.74-13.596 5.175-26.105 25.028-47.112 50.507-53.983-6.864-1.85-14.144-2.682-21.671-2.324-35.823 1.703-64.837 30.76-66.492 66.585-1.286 27.818 13.684 52.256 36.213 64.657 2.779 1.53 4.975 3.936 6.36 6.791l21.644 44.627c2.305 4.753 9.077 4.753 11.382 0l12.509-25.79z" fill="#da4a54"/></g><path d="m416.998.081c-35.823 1.703-64.837 30.76-66.492 66.585-1.286 27.818 13.684 52.256 36.213 64.657 2.779 1.53 4.975 3.936 6.36 6.791l21.644 44.627c2.305 4.753 9.077 4.753 11.382 0l21.645-44.628c1.388-2.861 3.594-5.266 6.379-6.8 21.618-11.908 36.269-34.901 36.269-61.326.001-39.786-33.195-71.817-73.4-69.906zm3.416 104.897c-19.326 0-34.993-15.667-34.993-34.993s15.667-34.993 34.993-34.993 34.993 15.667 34.993 34.993-15.667 34.993-34.993 34.993z" fill="#ffaa5b"/><g><path d="m429.478 138.114c-1.384-2.855-3.58-5.261-6.36-6.791-17.825-9.811-30.908-27.161-34.962-47.755-1.761-4.177-2.735-8.766-2.735-13.583 0-4.822.976-9.416 2.74-13.596 5.176-26.105 25.028-47.112 50.508-53.983-6.864-1.85-14.145-2.682-21.671-2.324-35.823 1.703-64.837 30.76-66.492 66.585-1.286 27.818 13.684 52.256 36.213 64.657 2.779 1.53 4.975 3.936 6.36 6.791l21.644 44.627c2.305 4.753 9.077 4.753 11.382 0l12.509-25.79z" fill="#ff9838"/></g><path d="m387.696 267.249c-17.716 0-32.078-14.362-32.078-32.078s14.362-32.077 32.078-32.077 32.077 14.361 32.077 32.077-14.361 32.078-32.077 32.078z" fill="#ffaa5b"/><path d="m386.867 235.172c0-12.042 6.639-22.528 16.453-28.014-4.624-2.585-9.95-4.064-15.624-4.064-17.716 0-32.078 14.361-32.078 32.077s14.362 32.078 32.078 32.078c5.674 0 11-1.479 15.624-4.064-9.814-5.485-16.453-15.971-16.453-28.013z" fill="#ff9838"/><path d="m124.304 267.249c-17.716 0-32.078-14.362-32.078-32.078s14.362-32.077 32.078-32.077 32.077 14.361 32.077 32.077-14.361 32.078-32.077 32.078z" fill="#dd636e"/><path d="m123.475 235.172c0-12.042 6.639-22.528 16.453-28.014-4.624-2.585-9.95-4.064-15.624-4.064-17.716 0-32.078 14.361-32.078 32.077s14.361 32.078 32.078 32.078c5.674 0 11-1.479 15.624-4.064-9.813-5.485-16.453-15.971-16.453-28.013z" fill="#da4a54"/></g></svg>